<svg xmlns="http://www.w3.org/2000/svg" viewBox="0 0 630 630">
  <rect width="630" height="630" fill="#f7df1e"></rect>
  <path d="M423.2 492.19c13.34 21.83 30.7 37.84 61.4 37.84 25.78 0 42.2-12.89 42.2-30.7 0-21.34-16.87-28.92-45.22-41.37l-15.56-6.68c-44.94-19.13-74.78-43.16-74.78-93.87 0-46.73 35.56-82.3 91.16-82.3 39.56 0 67.96 13.8 88.36 50.02l-48.34 31.02c-10.65-18.98-22.2-26.43-39.98-26.43-18.2 0-29.74 11.55-29.74 26.43 0 18.5 11.55 26.08 38.2 37.5l15.56 6.67c52.94 22.66 82.78 45.1 82.78 96.64 0 55.45-43.62 86.18-102.3 86.18-57.3 0-94.22-27.34-112.2-63.02l49.1-28.3zm-209.2 5.47c9.4 16.68 17.96 30.77 38.48 30.77 19.66 0 32.08-7.66 32.08-37.5V279.08h59.82v213.35c0 61.95-36.28 90.26-89.24 90.26-47.82 0-75.52-24.78-89.72-55.13l48.58-29.9z"></path>
</svg>
